<svg width="36" height="36" viewBox="0 0 36 36" fill="none" xmlns="http://www.w3.org/2000/svg">
<g clip-path="url(#clip0_443_2)">
<path d="M32.938 15.651C32.8667 15.4597 32.7387 15.2948 32.571 15.1785C32.4033 15.0621 32.2041 14.9998 32 15H19.925L26.89 1.458C26.9685 1.30548 27.0065 1.13531 27.0003 0.963855C26.9941 0.792397 26.9439 0.625419 26.8545 0.478976C26.7651 0.332534 26.6396 0.211554 26.4899 0.12767C26.3403 0.0437866 26.1715 -0.000179272 26 5.49391e-07C25.7602 0.000100044 25.5285 0.0863383 25.347 0.243001L18 6.588L3.34695 19.243C3.19253 19.3763 3.08256 19.5536 3.03181 19.7512C2.98106 19.9488 2.99194 20.1572 3.06301 20.3484C3.13408 20.5396 3.26192 20.7045 3.4294 20.821C3.59687 20.9374 3.79596 20.9999 3.99995 21H16.075L9.10995 34.542C9.03137 34.6945 8.99336 34.8647 8.99956 35.0361C9.00576 35.2076 9.05597 35.3746 9.14536 35.521C9.23475 35.6675 9.36032 35.7884 9.50998 35.8723C9.65965 35.9562 9.82838 36.0002 9.99995 36C10.2397 35.9999 10.4715 35.9137 10.653 35.757L18 29.412L32.653 16.757C32.8077 16.6238 32.9179 16.4464 32.9689 16.2487C33.0198 16.051 33.009 15.8424 32.938 15.651Z" fill="#FFAC33"/>
</g>
<defs>
<clipPath id="clip0_443_2">
<rect width="36" height="36" fill="white"/>
</clipPath>
</defs>
</svg>
